<svg width="72" height="72" viewBox="0 0 72 72" fill="none" xmlns="http://www.w3.org/2000/svg">
<path d="M22.9936 15.284C22.8249 14.3596 23.9086 13.7339 24.6248 14.3422L25.5634 15.1395C26.0904 15.5872 26.0149 16.4219 25.416 16.7677L24.6986 17.1819C24.0997 17.5277 23.339 17.1758 23.2148 16.4955L22.9936 15.284Z" fill="#E88016"/>
<path d="M58.3839 25.9307C59.3204 26.0069 59.6443 27.2157 58.8714 27.75L57.8582 28.4503C57.2894 28.8436 56.5027 28.5545 56.3237 27.8866L56.1092 27.0863C55.9302 26.4183 56.467 25.7747 57.1563 25.8308L58.3839 25.9307Z" fill="#E88016"/>
<path d="M47.7805 57.1881C47.9492 58.1125 46.8655 58.7382 46.1493 58.1299L45.2107 57.3325C44.6836 56.8848 44.7592 56.0501 45.3581 55.7043L46.0756 55.2901C46.6745 54.9444 47.4351 55.2963 47.5593 55.9766L47.7805 57.1881Z" fill="#E88016"/>
<path d="M60.4525 46.1491C61.0608 46.8653 60.4351 47.949 59.5107 47.7803L58.2992 47.5591C57.619 47.4349 57.2671 46.6742 57.6128 46.0754L58.027 45.3579C58.3728 44.759 59.2075 44.6835 59.6552 45.2105L60.4525 46.1491Z" fill="#E88016"/>
<path d="M25.7861 58.1298C25.07 58.7381 23.9862 58.1124 24.155 57.188L24.3762 55.9765C24.5004 55.2963 25.2611 54.9444 25.8599 55.2901L26.5774 55.7043C27.1763 56.0501 27.2518 56.8848 26.7248 57.3325L25.7861 58.1298Z" fill="#E88016"/>
<path d="M12.9615 47.7803C12.0372 47.949 11.4114 46.8653 12.0198 46.1491L12.817 45.2105C13.2647 44.6835 14.0995 44.759 14.4452 45.3579L14.8594 46.0754C15.2052 46.6742 14.8533 47.4349 14.173 47.5591L12.9615 47.7803Z" fill="#E88016"/>
<path d="M12.0681 27.75C11.2952 27.2157 11.6191 26.0069 12.5556 25.9307L13.7832 25.8308C14.4725 25.7747 15.0093 26.4183 14.8303 27.0863L14.6158 27.8866C14.4368 28.5545 13.6501 28.8436 13.0813 28.4503L12.0681 27.75Z" fill="#E88016"/>
<path d="M46.152 14.3408C46.8681 13.7329 47.9514 14.3584 47.783 15.2825L47.5617 16.4965C47.4376 17.177 46.6769 17.529 46.0779 17.1832L45.3584 16.7678C44.7594 16.422 44.684 15.5871 45.2112 15.1395L46.152 14.3408Z" fill="#E88016"/>
<path d="M36.9418 69.3631C36.6258 70.248 35.3743 70.248 35.0583 69.3631L30.6709 57.0783C30.4383 56.427 30.9211 55.7419 31.6126 55.7419H40.3875C41.079 55.7419 41.5618 56.427 41.3292 57.0783L36.9418 69.3631Z" fill="url(#paint0_linear)"/>
<path d="M2.63688 38.103C1.75199 37.787 1.75199 36.5355 2.63688 36.2195L14.9217 31.8321C15.573 31.5995 16.2581 32.0823 16.2581 32.7738V41.5487C16.2581 42.2402 15.573 42.723 14.9217 42.4904L2.63688 38.103Z" fill="url(#paint1_linear)"/>
<path d="M69.3631 36.2195C70.248 36.5355 70.248 37.787 69.3631 38.103L57.0783 42.4904C56.427 42.723 55.7419 42.2402 55.7419 41.5487V32.7738C55.7419 32.0823 56.427 31.5995 57.0783 31.8321L69.3631 36.2195Z" fill="url(#paint2_linear)"/>
<path d="M35.0583 2.63688C35.3743 1.75199 36.6258 1.75199 36.9418 2.63688L41.3292 14.9217C41.5618 15.573 41.079 16.2581 40.3875 16.2581H31.6126C30.9211 16.2581 30.4383 15.573 30.6709 14.9217L35.0583 2.63688Z" fill="url(#paint3_linear)"/>
<path d="M36.0002 53.4193C45.6206 53.4193 53.4195 45.6204 53.4195 36C53.4195 26.3795 45.6206 18.5806 36.0002 18.5806C26.3797 18.5806 18.5808 26.3795 18.5808 36C18.5808 45.6204 26.3797 53.4193 36.0002 53.4193Z" fill="#FFAE25"/>
<mask id="mask0" mask-type="alpha" maskUnits="userSpaceOnUse" x="18" y="18" width="36" height="36">
<path d="M36.0002 53.4193C45.6206 53.4193 53.4195 45.6204 53.4195 36C53.4195 26.3795 45.6206 18.5806 36.0002 18.5806C26.3797 18.5806 18.5808 26.3795 18.5808 36C18.5808 45.6204 26.3797 53.4193 36.0002 53.4193Z" fill="white"/>
</mask>
<g mask="url(#mask0)">
<g opacity="0.648624" filter="url(#filter0_f)">
<path fill-rule="evenodd" clip-rule="evenodd" d="M44.129 20.5093C44.129 20.5093 47.3052 29.2573 43.3087 39.0503C39.3122 48.8434 34.4331 51.533 27.2197 55.742C20.0062 59.951 56.9032 54.5807 56.9032 54.5807V21.159L44.129 20.5093Z" fill="#B30D0D" fill-opacity="0.7" style="mix-blend-mode:multiply"/>
</g>
</g>
<path d="M48.7901 21.7175C48.3325 21.2599 48.4234 20.4949 48.9754 20.1573L57.813 14.7517C58.7089 14.2037 59.7359 15.2307 59.1879 16.1266L53.7823 24.9642C53.4447 25.5162 52.6797 25.6071 52.2221 25.1495L48.7901 21.7175Z" fill="#E2C11F"/>
<path d="M52.2221 47.6289C52.6797 47.1713 53.4447 47.2622 53.7823 47.8142L59.1879 56.652C59.7359 57.5479 58.709 58.5748 57.8131 58.0268L48.9754 52.6212C48.4234 52.2836 48.3325 51.5186 48.79 51.0611L52.2221 47.6289Z" fill="#E2C11F"/>
<path d="M23.9883 51.061C24.4458 51.5185 24.3549 52.2835 23.8029 52.6211L14.9653 58.0267C14.0694 58.5747 13.0425 57.5477 13.5905 56.6518L18.996 47.8142C19.3336 47.2622 20.0986 47.1713 20.5562 47.6289L23.9883 51.061Z" fill="#E2C11F"/>
<path d="M19.3948 25.1495C18.9373 25.6071 18.1723 25.5162 17.8347 24.9642L12.4291 16.1266C11.8811 15.2307 12.908 14.2037 13.804 14.7517L22.6416 20.1573C23.1936 20.4949 23.2845 21.2599 22.8269 21.7175L19.3948 25.1495Z" fill="#E2C11F"/>
<defs>
<filter id="filter0_f" x="10.4147" y="4.63934" width="62.3585" height="68.5834" filterUnits="userSpaceOnUse" color-interpolation-filters="sRGB">
<feFlood flood-opacity="0" result="BackgroundImageFix"/>
<feBlend mode="normal" in="SourceGraphic" in2="BackgroundImageFix" result="shape"/>
<feGaussianBlur stdDeviation="7.935" result="effect1_foregroundBlur"/>
</filter>
<linearGradient id="paint0_linear" x1="41.8065" y1="56.8879" x2="31.8307" y2="56.8879" gradientUnits="userSpaceOnUse">
<stop stop-color="#F8772F"/>
<stop offset="1" stop-color="#FFAE25"/>
</linearGradient>
<linearGradient id="paint1_linear" x1="16.2581" y1="32.1733" x2="2.29191" y2="32.1733" gradientUnits="userSpaceOnUse">
<stop stop-color="#F8772F"/>
<stop offset="1" stop-color="#FFAE25"/>
</linearGradient>
<linearGradient id="paint2_linear" x1="72" y1="32.1733" x2="58.0339" y2="32.1733" gradientUnits="userSpaceOnUse">
<stop stop-color="#F8772F"/>
<stop offset="1" stop-color="#FFAE25"/>
</linearGradient>
<linearGradient id="paint3_linear" x1="41.8065" y1="1.14596" x2="31.8307" y2="1.14596" gradientUnits="userSpaceOnUse">
<stop stop-color="#F8772F"/>
<stop offset="1" stop-color="#FFAE25"/>
</linearGradient>
</defs>
</svg>
