<svg width="174" height="104" viewBox="0 0 174 104" fill="none" xmlns="http://www.w3.org/2000/svg">
<path d="M78.271 16.13C78.271 14.75 78.721 13.67 79.621 12.89C80.541 12.09 81.951 11.69 83.851 11.69C85.131 11.69 86.341 11.86 87.481 12.2V14.24C86.301 13.86 85.091 13.67 83.851 13.67C82.611 13.67 81.721 13.89 81.181 14.33C80.661 14.75 80.401 15.39 80.401 16.25V27.8C80.401 29.42 81.361 30.23 83.281 30.23C84.541 30.23 85.441 30.02 85.981 29.6V22.1H88.111V30.95C86.691 31.75 85.141 32.15 83.461 32.15C80.001 32.15 78.271 30.73 78.271 27.89V16.13ZM101.448 32L100.218 26.36H94.8182L93.5882 32H91.4582L96.0182 11.84H99.0182L103.578 32H101.448ZM95.2082 24.5H99.7982L97.4882 13.91L95.2082 24.5ZM117.193 16.4V18.11C117.193 20.03 116.453 21.27 114.973 21.83C116.573 22.37 117.373 23.64 117.373 25.64V27.44C117.373 28.86 116.963 29.98 116.143 30.8C115.343 31.6 114.143 32 112.543 32H107.173V11.84H112.363C113.963 11.84 115.163 12.25 115.963 13.07C116.783 13.87 117.193 14.98 117.193 16.4ZM112.183 13.7H109.303V20.93H112.183C114.103 20.93 115.063 20.01 115.063 18.17V16.46C115.063 14.62 114.103 13.7 112.183 13.7ZM115.243 27.38V25.58C115.243 23.74 114.283 22.82 112.363 22.82H109.303V30.14H112.363C114.283 30.14 115.243 29.22 115.243 27.38ZM127.306 23.9H124.336V32H122.206V11.84H127.096C128.696 11.84 129.906 12.25 130.726 13.07C131.546 13.87 131.956 14.97 131.956 16.37V19.34C131.956 21.5 131.096 22.9 129.376 23.54L132.586 32H130.246L127.306 23.9ZM124.336 22.04H127.006C128.886 22.04 129.826 21.13 129.826 19.31V16.46C129.826 14.64 128.886 13.73 127.006 13.73H124.336V22.04ZM136.917 11.84H139.047V32H136.917V11.84ZM144.186 11.84H152.916V13.73H146.316V20.9H152.076V22.79H146.316V30.11H152.916V32H144.186V11.84ZM157.11 11.84H159.24V30.14H165.36V32H157.11V11.84ZM80.3589 39.744H83.7669V72H80.3589V39.744ZM92.9349 39.744H96.6309L89.8629 55.824L97.0149 72H93.2229L86.2149 55.92L92.9349 39.744ZM102.125 39.744H105.533V72H102.125V39.744ZM113.156 39.744H116.564V69.024H126.356V72H113.156V39.744ZM130.89 39.744H134.298V69.024H144.09V72H130.89V39.744ZM156.833 72H153.425V61.104L145.505 39.744H149.009L152.273 48.528C152.401 48.88 153.377 51.744 155.201 57.12C156.385 53.44 158.417 47.648 161.297 39.744H164.753L156.833 61.104V72Z" fill="#353535"/>
<path d="M22.9938 20.284C22.825 19.3596 23.9088 18.7339 24.6249 19.3422L25.5635 20.1395C26.0906 20.5872 26.015 21.4219 25.4161 21.7677L24.6987 22.1819C24.0998 22.5277 23.3392 22.1758 23.2149 21.4955L22.9938 20.284Z" fill="#E88016"/>
<path d="M58.3839 30.9307C59.3204 31.0069 59.6443 32.2157 58.8714 32.75L57.8582 33.4503C57.2894 33.8436 56.5027 33.5545 56.3237 32.8866L56.1092 32.0863C55.9302 31.4183 56.467 30.7747 57.1563 30.8308L58.3839 30.9307Z" fill="#E88016"/>
<path d="M47.7804 62.1881C47.9491 63.1125 46.8653 63.7382 46.1492 63.1299L45.2105 62.3325C44.6835 61.8848 44.7591 61.0501 45.358 60.7043L46.0754 60.2901C46.6743 59.9444 47.435 60.2963 47.5592 60.9766L47.7804 62.1881Z" fill="#E88016"/>
<path d="M60.4525 51.1491C61.0608 51.8653 60.4351 52.9491 59.5107 52.7803L58.2992 52.5591C57.619 52.4349 57.2671 51.6742 57.6128 51.0754L58.027 50.3579C58.3728 49.759 59.2075 49.6835 59.6552 50.2105L60.4525 51.1491Z" fill="#E88016"/>
<path d="M25.7863 63.1298C25.0701 63.7381 23.9864 63.1124 24.1551 62.188L24.3763 60.9765C24.5005 60.2963 25.2612 59.9444 25.8601 60.2901L26.5775 60.7043C27.1764 61.0501 27.2519 61.8848 26.7249 62.3325L25.7863 63.1298Z" fill="#E88016"/>
<path d="M12.9614 52.7803C12.0371 52.949 11.4113 51.8653 12.0196 51.1491L12.8169 50.2105C13.2646 49.6835 14.0993 49.759 14.4451 50.3579L14.8593 51.0754C15.2051 51.6742 14.8532 52.4349 14.1729 52.5591L12.9614 52.7803Z" fill="#E88016"/>
<path d="M12.0681 32.75C11.2952 32.2157 11.6191 31.0069 12.5556 30.9307L13.7832 30.8308C14.4725 30.7747 15.0093 31.4183 14.8303 32.0863L14.6158 32.8866C14.4368 33.5545 13.6501 33.8436 13.0813 33.4503L12.0681 32.75Z" fill="#E88016"/>
<path d="M46.1519 19.3408C46.8679 18.7329 47.9513 19.3584 47.7828 20.2825L47.5615 21.4965C47.4375 22.177 46.6767 22.529 46.0777 22.1832L45.3583 21.7678C44.7593 21.422 44.6838 20.5871 45.2111 20.1395L46.1519 19.3408Z" fill="#E88016"/>
<path d="M36.9418 74.3631C36.6258 75.248 35.3743 75.248 35.0583 74.3631L30.6709 62.0783C30.4383 61.427 30.9211 60.7419 31.6126 60.7419H40.3875C41.079 60.7419 41.5618 61.427 41.3292 62.0783L36.9418 74.3631Z" fill="url(#paint0_linear)"/>
<path d="M2.63688 43.103C1.75199 42.787 1.75199 41.5355 2.63688 41.2195L14.9217 36.8321C15.573 36.5995 16.2581 37.0823 16.2581 37.7738V46.5487C16.2581 47.2402 15.573 47.723 14.9217 47.4904L2.63688 43.103Z" fill="url(#paint1_linear)"/>
<path d="M69.3631 41.2195C70.248 41.5355 70.248 42.787 69.3631 43.103L57.0783 47.4904C56.427 47.723 55.7419 47.2402 55.7419 46.5487V37.7738C55.7419 37.0823 56.427 36.5995 57.0783 36.8321L69.3631 41.2195Z" fill="url(#paint2_linear)"/>
<path d="M35.0583 7.63688C35.3743 6.75199 36.6258 6.75199 36.9418 7.63688L41.3292 19.9217C41.5618 20.573 41.079 21.2581 40.3875 21.2581H31.6126C30.9211 21.2581 30.4383 20.573 30.6709 19.9217L35.0583 7.63688Z" fill="url(#paint3_linear)"/>
<path d="M36 58.4193C45.6205 58.4193 53.4194 50.6204 53.4194 41C53.4194 31.3795 45.6205 23.5806 36 23.5806C26.3796 23.5806 18.5807 31.3795 18.5807 41C18.5807 50.6204 26.3796 58.4193 36 58.4193Z" fill="#FFAE25"/>
<mask id="mask0" mask-type="alpha" maskUnits="userSpaceOnUse" x="18" y="23" width="36" height="36">
<path d="M36 58.4193C45.6205 58.4193 53.4194 50.6204 53.4194 41C53.4194 31.3795 45.6205 23.5806 36 23.5806C26.3796 23.5806 18.5807 31.3795 18.5807 41C18.5807 50.6204 26.3796 58.4193 36 58.4193Z" fill="white"/>
</mask>
<g mask="url(#mask0)">
<g opacity="0.648624" filter="url(#filter0_f)">
<path fill-rule="evenodd" clip-rule="evenodd" d="M44.129 25.5093C44.129 25.5093 47.3052 34.2573 43.3087 44.0503C39.3122 53.8434 34.4331 56.533 27.2197 60.742C20.0062 64.951 56.9032 59.5807 56.9032 59.5807V26.159L44.129 25.5093Z" fill="#B30D0D" fill-opacity="0.7" style="mix-blend-mode:multiply"/>
</g>
</g>
<path d="M48.7902 26.7175C48.3326 26.2599 48.4235 25.4949 48.9755 25.1573L57.8132 19.7517C58.7091 19.2037 59.736 20.2307 59.188 21.1266L53.7825 29.9642C53.4448 30.5162 52.6798 30.6071 52.2223 30.1495L48.7902 26.7175Z" fill="#E2C11F"/>
<path d="M52.2223 52.6289C52.6798 52.1713 53.4448 52.2622 53.7825 52.8142L59.188 61.652C59.736 62.5479 58.7091 63.5748 57.8132 63.0268L48.9755 57.6212C48.4235 57.2836 48.3326 56.5186 48.7902 56.0611L52.2223 52.6289Z" fill="#E2C11F"/>
<path d="M23.9883 56.061C24.4458 56.5185 24.3549 57.2835 23.8029 57.6211L14.9653 63.0267C14.0694 63.5747 13.0425 62.5477 13.5905 61.6518L18.996 52.8142C19.3336 52.2622 20.0986 52.1713 20.5562 52.6289L23.9883 56.061Z" fill="#E2C11F"/>
<path d="M19.395 30.1495C18.9374 30.6071 18.1724 30.5162 17.8348 29.9642L12.4292 21.1266C11.8812 20.2307 12.9082 19.2037 13.8041 19.7517L22.6417 25.1573C23.1937 25.4949 23.2846 26.2599 22.827 26.7175L19.395 30.1495Z" fill="#E2C11F"/>
<defs>
<filter id="filter0_f" x="10.4148" y="9.63934" width="62.3585" height="68.5834" filterUnits="userSpaceOnUse" color-interpolation-filters="sRGB">
<feFlood flood-opacity="0" result="BackgroundImageFix"/>
<feBlend mode="normal" in="SourceGraphic" in2="BackgroundImageFix" result="shape"/>
<feGaussianBlur stdDeviation="7.935" result="effect1_foregroundBlur"/>
</filter>
<linearGradient id="paint0_linear" x1="41.8065" y1="61.8879" x2="31.8307" y2="61.8879" gradientUnits="userSpaceOnUse">
<stop stop-color="#F8772F"/>
<stop offset="1" stop-color="#FFAE25"/>
</linearGradient>
<linearGradient id="paint1_linear" x1="16.2581" y1="37.1733" x2="2.29191" y2="37.1733" gradientUnits="userSpaceOnUse">
<stop stop-color="#F8772F"/>
<stop offset="1" stop-color="#FFAE25"/>
</linearGradient>
<linearGradient id="paint2_linear" x1="72" y1="37.1733" x2="58.0339" y2="37.1733" gradientUnits="userSpaceOnUse">
<stop stop-color="#F8772F"/>
<stop offset="1" stop-color="#FFAE25"/>
</linearGradient>
<linearGradient id="paint3_linear" x1="41.8065" y1="6.14596" x2="31.8307" y2="6.14596" gradientUnits="userSpaceOnUse">
<stop stop-color="#F8772F"/>
<stop offset="1" stop-color="#FFAE25"/>
</linearGradient>
</defs>
</svg>
